<svg width="255" height="76" viewBox="0 0 255 76" fill="none" xmlns="http://www.w3.org/2000/svg">
<path d="M27.9478 45.8515V25.7974H35.2919C36.715 25.7974 37.8933 26.0324 38.8268 26.5024C39.7603 26.9659 40.4588 27.5958 40.9223 28.3923C41.3858 29.1821 41.6176 30.0732 41.6176 31.0655C41.6176 31.9011 41.4642 32.6061 41.1573 33.1806C40.8505 33.7485 40.4393 34.2055 39.9235 34.5515C39.4144 34.8909 38.8529 35.139 38.2393 35.2957V35.4915C38.9052 35.5241 39.5547 35.7396 40.1879 36.1378C40.8277 36.5295 41.3564 37.0876 41.7742 37.8122C42.192 38.5368 42.4009 39.4181 42.4009 40.4561C42.4009 41.481 42.1594 42.4014 41.6763 43.2174C41.1998 44.0269 40.4621 44.6699 39.4633 45.1465C38.4645 45.6165 37.1883 45.8515 35.6346 45.8515H27.9478ZM30.9736 43.2566H35.3409C36.7901 43.2566 37.828 42.9759 38.4547 42.4145C39.0814 41.8531 39.3948 41.1513 39.3948 40.3092C39.3948 39.676 39.2348 39.095 38.915 38.5662C38.5951 38.0374 38.1381 37.6164 37.5441 37.303C36.9565 36.9897 36.258 36.833 35.4486 36.833H30.9736V43.2566ZM30.9736 34.4731H35.0275C35.7064 34.4731 36.3168 34.3426 36.8586 34.0814C37.407 33.8203 37.8411 33.4547 38.161 32.9847C38.4874 32.5082 38.6506 31.9468 38.6506 31.3005C38.6506 30.4714 38.3601 29.7762 37.7791 29.2148C37.1981 28.6534 36.307 28.3727 35.1058 28.3727H30.9736V34.4731ZM52.0902 46.1551C50.6801 46.1551 49.4496 45.8319 48.3986 45.1856C47.3476 44.5394 46.5315 43.6352 45.9506 42.4732C45.3696 41.3112 45.0791 39.9534 45.0791 38.3997C45.0791 36.8395 45.3696 35.4752 45.9506 34.3067C46.5315 33.1381 47.3476 32.2307 48.3986 31.5845C49.4496 30.9382 50.6801 30.615 52.0902 30.615C53.5002 30.615 54.7308 30.9382 55.7818 31.5845C56.8328 32.2307 57.6488 33.1381 58.2298 34.3067C58.8108 35.4752 59.1013 36.8395 59.1013 38.3997C59.1013 39.9534 58.8108 41.3112 58.2298 42.4732C57.6488 43.6352 56.8328 44.5394 55.7818 45.1856C54.7308 45.8319 53.5002 46.1551 52.0902 46.1551ZM52.1 43.6972C53.0139 43.6972 53.7711 43.4557 54.3717 42.9726C54.9723 42.4896 55.4162 41.8465 55.7034 41.0436C55.9972 40.2406 56.1441 39.3561 56.1441 38.3899C56.1441 37.4303 55.9972 36.549 55.7034 35.7461C55.4162 34.9366 54.9723 34.2871 54.3717 33.7975C53.7711 33.3079 53.0139 33.0631 52.1 33.0631C51.1795 33.0631 50.4157 33.3079 49.8086 33.7975C49.208 34.2871 48.7609 34.9366 48.4671 35.7461C48.1799 36.549 48.0363 37.4303 48.0363 38.3899C48.0363 39.3561 48.1799 40.2406 48.4671 41.0436C48.7609 41.8465 49.208 42.4896 49.8086 42.9726C50.4157 43.4557 51.1795 43.6972 52.1 43.6972ZM68.7049 46.1551C67.2948 46.1551 66.0643 45.8319 65.0133 45.1856C63.9622 44.5394 63.1462 43.6352 62.5652 42.4732C61.9842 41.3112 61.6937 39.9534 61.6937 38.3997C61.6937 36.8395 61.9842 35.4752 62.5652 34.3067C63.1462 33.1381 63.9622 32.2307 65.0133 31.5845C66.0643 30.9382 67.2948 30.615 68.7049 30.615C70.1149 30.615 71.3455 30.9382 72.3965 31.5845C73.4475 32.2307 74.2635 33.1381 74.8445 34.3067C75.4255 35.4752 75.716 36.8395 75.716 38.3997C75.716 39.9534 75.4255 41.3112 74.8445 42.4732C74.2635 43.6352 73.4475 44.5394 72.3965 45.1856C71.3455 45.8319 70.1149 46.1551 68.7049 46.1551ZM68.7147 43.6972C69.6286 43.6972 70.3858 43.4557 70.9864 42.9726C71.587 42.4896 72.0309 41.8465 72.3181 41.0436C72.6119 40.2406 72.7588 39.3561 72.7588 38.3899C72.7588 37.4303 72.6119 36.549 72.3181 35.7461C72.0309 34.9366 71.587 34.2871 70.9864 33.7975C70.3858 33.3079 69.6286 33.0631 68.7147 33.0631C67.7942 33.0631 67.0304 33.3079 66.4233 33.7975C65.8227 34.2871 65.3756 34.9366 65.0818 35.7461C64.7946 36.549 64.6509 37.4303 64.6509 38.3899C64.6509 39.3561 64.7946 40.2406 65.0818 41.0436C65.3756 41.8465 65.8227 42.4896 66.4233 42.9726C67.0304 43.4557 67.7942 43.6972 68.7147 43.6972ZM81.6769 40.7498L81.6573 37.1757H82.1665L88.1592 30.8109H91.6648L84.8299 38.057H84.3697L81.6769 40.7498ZM78.9841 45.8515V25.7974H81.9119V45.8515H78.9841ZM88.4824 45.8515L83.0967 38.7033L85.1139 36.6568L92.0761 45.8515H88.4824ZM106.008 46.1844C105.055 46.1844 104.193 46.0082 103.423 45.6557C102.652 45.2966 102.042 44.7776 101.592 44.0987C101.148 43.4198 100.926 42.5875 100.926 41.6017C100.926 40.7531 101.089 40.0546 101.415 39.5062C101.742 38.9579 102.182 38.5238 102.737 38.2039C103.292 37.884 103.912 37.6425 104.598 37.4793C105.283 37.3161 105.982 37.1921 106.693 37.1072C107.594 37.0027 108.325 36.9179 108.887 36.8526C109.448 36.7808 109.856 36.6665 110.111 36.5099C110.365 36.3532 110.492 36.0986 110.492 35.7461V35.6775C110.492 34.8224 110.251 34.1598 109.768 33.6898C109.291 33.2197 108.58 32.9847 107.633 32.9847C106.647 32.9847 105.871 33.2034 105.303 33.6408C104.741 34.0716 104.353 34.5515 104.137 35.0802L101.386 34.4535C101.712 33.5396 102.189 32.8019 102.816 32.2405C103.449 31.6726 104.177 31.2613 104.999 31.0067C105.822 30.7456 106.687 30.615 107.594 30.615C108.195 30.615 108.831 30.6869 109.504 30.8305C110.182 30.9676 110.816 31.2222 111.403 31.5943C111.997 31.9664 112.484 32.4984 112.862 33.1904C113.241 33.8758 113.43 34.7669 113.43 35.8636V45.8515H110.571V43.7952H110.453C110.264 44.1738 109.98 44.5459 109.601 44.9115C109.223 45.277 108.736 45.5806 108.142 45.8221C107.548 46.0637 106.837 46.1844 106.008 46.1844ZM106.644 43.8343C107.454 43.8343 108.146 43.6744 108.72 43.3545C109.301 43.0347 109.742 42.6169 110.042 42.1011C110.349 41.5789 110.502 41.0207 110.502 40.4267V38.4879C110.398 38.5923 110.195 38.6902 109.895 38.7816C109.601 38.8665 109.265 38.9416 108.887 39.0068C108.508 39.0656 108.139 39.1211 107.78 39.1733C107.421 39.219 107.121 39.2582 106.879 39.2908C106.311 39.3626 105.792 39.4834 105.322 39.6531C104.859 39.8229 104.487 40.0677 104.206 40.3875C103.932 40.7009 103.795 41.1187 103.795 41.6409C103.795 42.3655 104.062 42.9139 104.598 43.286C105.133 43.6516 105.815 43.8343 106.644 43.8343ZM130.258 46.1453C129.044 46.1453 127.96 45.8352 127.007 45.215C126.06 44.5883 125.316 43.6972 124.774 42.5418C124.239 41.3798 123.971 39.9861 123.971 38.3606C123.971 36.7351 124.242 35.3446 124.784 34.1892C125.332 33.0337 126.083 32.1491 127.036 31.5355C127.989 30.9219 129.07 30.615 130.277 30.615C131.211 30.615 131.962 30.7717 132.53 31.0851C133.104 31.3919 133.548 31.7509 133.861 32.1622C134.181 32.5735 134.429 32.9358 134.605 33.2491H134.782V25.7974H137.71V45.8515H134.85V43.5112H134.605C134.429 43.8311 134.175 44.1966 133.842 44.6079C133.515 45.0192 133.065 45.3782 132.49 45.685C131.916 45.9919 131.172 46.1453 130.258 46.1453ZM130.904 43.6483C131.746 43.6483 132.458 43.4263 133.039 42.9824C133.626 42.532 134.07 41.9086 134.37 41.1121C134.677 40.3157 134.831 39.3887 134.831 38.3312C134.831 37.2867 134.681 36.3728 134.38 35.5894C134.08 34.8061 133.639 34.1957 133.058 33.7583C132.477 33.3209 131.759 33.1022 130.904 33.1022C130.023 33.1022 129.288 33.3307 128.701 33.7877C128.113 34.2446 127.669 34.8681 127.369 35.658C127.075 36.4479 126.928 37.3389 126.928 38.3312C126.928 39.3365 127.079 40.2406 127.379 41.0436C127.679 41.8465 128.123 42.483 128.711 42.9531C129.305 43.4165 130.036 43.6483 130.904 43.6483ZM148.371 46.1551C146.889 46.1551 145.613 45.8384 144.542 45.2052C143.478 44.5655 142.655 43.6679 142.074 42.5124C141.5 41.3504 141.213 39.9893 141.213 38.4291C141.213 36.8885 141.5 35.5307 142.074 34.3556C142.655 33.1806 143.465 32.2634 144.503 31.604C145.547 30.9447 146.768 30.615 148.165 30.615C149.014 30.615 149.836 30.7554 150.633 31.0361C151.429 31.3168 152.144 31.7575 152.777 32.358C153.41 32.9586 153.91 33.7387 154.275 34.6983C154.641 35.6514 154.824 36.8102 154.824 38.1745V39.2125H142.868V37.0191H151.955C151.955 36.2488 151.798 35.5666 151.485 34.9725C151.171 34.3719 150.731 33.8987 150.163 33.5527C149.601 33.2067 148.942 33.0337 148.185 33.0337C147.362 33.0337 146.644 33.2361 146.03 33.6408C145.423 34.039 144.953 34.5613 144.62 35.2075C144.294 35.8473 144.131 36.5425 144.131 37.2932V39.0068C144.131 40.0122 144.307 40.8673 144.659 41.5724C145.018 42.2774 145.518 42.816 146.158 43.1881C146.797 43.5536 147.545 43.7364 148.4 43.7364C148.955 43.7364 149.461 43.6581 149.918 43.5014C150.375 43.3382 150.77 43.0967 151.103 42.7768C151.436 42.4569 151.69 42.062 151.866 41.592L154.638 42.0913C154.416 42.9074 154.017 43.6222 153.443 44.2358C152.875 44.8429 152.16 45.3162 151.298 45.6557C150.443 45.9886 149.467 46.1551 148.371 46.1551ZM158.072 45.8515V30.8109H160.882V33.2589H161.069C161.382 32.4298 161.894 31.7836 162.606 31.3201C163.317 30.8501 164.169 30.615 165.162 30.615C166.167 30.615 167.009 30.8501 167.688 31.3201C168.373 31.7901 168.879 32.4364 169.206 33.2589H169.362C169.721 32.456 170.293 31.8162 171.076 31.3397C171.859 30.8566 172.793 30.615 173.877 30.615C175.241 30.615 176.354 31.0426 177.216 31.8978C178.084 32.753 178.518 34.0423 178.518 35.7657V45.8515H175.59V36.0399C175.59 35.0215 175.313 34.2838 174.758 33.8268C174.203 33.3699 173.54 33.1414 172.77 33.1414C171.817 33.1414 171.076 33.4352 170.547 34.0227C170.018 34.6037 169.754 35.3511 169.754 36.2651V45.8515H166.836V35.8538C166.836 35.0378 166.581 34.3817 166.072 33.8856C165.563 33.3895 164.9 33.1414 164.084 33.1414C163.53 33.1414 163.017 33.2883 162.547 33.582C162.084 33.8693 161.708 34.2708 161.421 34.7865C161.14 35.3022 161 35.8995 161 36.5784V45.8515H158.072ZM188.778 46.1551C187.368 46.1551 186.137 45.8319 185.086 45.1856C184.035 44.5394 183.219 43.6352 182.638 42.4732C182.057 41.3112 181.766 39.9534 181.766 38.3997C181.766 36.8395 182.057 35.4752 182.638 34.3067C183.219 33.1381 184.035 32.2307 185.086 31.5845C186.137 30.9382 187.368 30.615 188.778 30.615C190.188 30.615 191.418 30.9382 192.469 31.5845C193.52 32.2307 194.336 33.1381 194.917 34.3067C195.498 35.4752 195.789 36.8395 195.789 38.3997C195.789 39.9534 195.498 41.3112 194.917 42.4732C194.336 43.6352 193.52 44.5394 192.469 45.1856C191.418 45.8319 190.188 46.1551 188.778 46.1551ZM188.787 43.6972C189.701 43.6972 190.459 43.4557 191.059 42.9726C191.66 42.4896 192.104 41.8465 192.391 41.0436C192.685 40.2406 192.832 39.3561 192.832 38.3899C192.832 37.4303 192.685 36.549 192.391 35.7461C192.104 34.9366 191.66 34.2871 191.059 33.7975C190.459 33.3079 189.701 33.0631 188.787 33.0631C187.867 33.0631 187.103 33.3079 186.496 33.7975C185.895 34.2871 185.448 34.9366 185.155 35.7461C184.867 36.549 184.724 37.4303 184.724 38.3899C184.724 39.3561 184.867 40.2406 185.155 41.0436C185.448 41.8465 185.895 42.4896 186.496 42.9726C187.103 43.4557 187.867 43.6972 188.787 43.6972Z" fill="white"/>
<g clip-path="url(#clip0_0_550)">
<path d="M240.76 44.1281L248.638 38.0004L240.76 31.8727L238.903 33.3168L243.612 36.9791H211.872V39.0217H243.612L238.903 42.684L240.76 44.1281Z" fill="white"/>
</g>
<path d="M63.4558 12.5442C58.4211 7.50948 52.0065 4.08081 45.0232 2.69174C38.0399 1.30268 30.8015 2.0156 24.2234 4.74035C17.6452 7.46511 12.0228 12.0793 8.06709 17.9995C4.11136 23.9197 2 30.8799 2 38C2 45.1201 4.11136 52.0804 8.06709 58.0005C12.0228 63.9207 17.6453 68.5349 24.2234 71.2596C30.8015 73.9844 38.0399 74.6973 45.0232 73.3083C52.0065 71.9192 58.4211 68.4905 63.4558 63.4558" stroke="#FFE89E" stroke-width="3.06383" stroke-linecap="round" stroke-linejoin="round"/>
<defs>
<clipPath id="clip0_0_550">
<rect width="42.8936" height="33.7021" fill="white" transform="translate(211.872 18.8515)"/>
</clipPath>
</defs>
</svg>
